<svg id="fc81b8ea-4671-47b5-9fa1-ba62641ca220" data-name="Layer 1" xmlns="http://www.w3.org/2000/svg" viewBox="0 0 439.46 450.18"><defs><style>.f1584613-72ff-42ef-aae9-55f12030adb1{fill:#fff;}.e8e351ce-352c-4682-b3f7-4c71f736220f{fill:#f4f4f4;}.bc014fc5-7ef8-42f2-9b7f-2369bb953021{fill:#262626;}</style></defs><path class="f1584613-72ff-42ef-aae9-55f12030adb1" d="M429.09,334.25A172.27,172.27,0,0,1,322,433.41c13.3-16.64,24.26-39.65,32-67H331.83c-12.22,39.63-31.3,65.76-50.9,72.88v1.61c-3.55.22-7.09.54-10.71.54s-7.16-.32-10.72-.54v-1.61c-24.49-8.91-48.23-47.46-58.69-105H179.15c7.15,41.64,21.07,76.33,39.32,99.16a172.24,172.24,0,0,1-107.12-99.16H88.54c26.57,74.8,97.87,128.62,181.68,128.62s155.1-53.82,181.68-128.62Z" transform="translate(-88 -77)"/><path class="f1584613-72ff-42ef-aae9-55f12030adb1" d="M163,277.62l8.11-50.56h24.06l-19,85.75H155l-13.33-50.9-13.42,50.9H107L88,227.06h24.07l8,51.75,12.81-51.75h17.49Z" transform="translate(-88 -77)"/><path class="f1584613-72ff-42ef-aae9-55f12030adb1" d="M291.64,277.62l8.12-50.56h24.05l-19,85.75H283.6l-13.33-50.9-13.42,50.9H235.63l-19-85.75H240.7l8,51.75,12.81-51.75H279Z" transform="translate(-88 -77)"/><path class="f1584613-72ff-42ef-aae9-55f12030adb1" d="M420.27,277.62l8.11-50.56h24.05l-19,85.75H412.23l-13.34-50.9-13.42,50.9H364.25l-19-85.75h24.07l8,51.75,12.81-51.75h17.5Z" transform="translate(-88 -77)"/><rect class="f1584613-72ff-42ef-aae9-55f12030adb1" x="32.16" y="75.03" width="300.12" height="21.44"/><rect class="f1584613-72ff-42ef-aae9-55f12030adb1" x="32.16" y="289.4" width="300.12" height="21.44"/><path class="f1584613-72ff-42ef-aae9-55f12030adb1" d="M259.5,89.87V205.62h21.43V89.87a27.78,27.78,0,0,0-21.43,0Z" transform="translate(-88 -77)"/><path class="f1584613-72ff-42ef-aae9-55f12030adb1" d="M111.35,205.62a172.28,172.28,0,0,1,107.12-99.17c-18.25,22.84-32.17,57.53-39.32,99.17h21.66c10.46-57.57,34.2-96.13,58.69-105V99c3.56-.22,7.09-.54,10.72-.54s7.16.32,10.71.54v1.61c24.5,8.91,48.23,47.46,58.69,105h21.66C354.13,164,340.21,129.29,322,106.45a172.28,172.28,0,0,1,107.12,99.17H451.9C425.32,130.82,354,77,270.22,77S115.11,130.82,88.54,205.62Z" transform="translate(-88 -77)"/><path class="f1584613-72ff-42ef-aae9-55f12030adb1" d="M280.93,450V334.25H259.5V450a27.78,27.78,0,0,0,21.43,0Z" transform="translate(-88 -77)"/><path class="e8e351ce-352c-4682-b3f7-4c71f736220f" d="M527.46,420c0,59-48.23,107.19-107.18,107.19S313.09,479,313.09,420s48.23-107.18,107.19-107.18S527.46,361,527.46,420" transform="translate(-88 -77)"/><path class="bc014fc5-7ef8-42f2-9b7f-2369bb953021" d="M419.2,452.15c-4.28,0-8.57,1.07-11.79,4.29s-4.28,6.43-4.28,11.79c0,4.29,1.07,8.57,4.28,11.79s7.51,4.29,11.79,4.29,8.58-1.08,11.79-4.29,4.29-6.43,4.29-11.79c0-4.29-1.07-8.58-4.29-11.79S423.49,452.15,419.2,452.15Z" transform="translate(-88 -77)"/><path class="bc014fc5-7ef8-42f2-9b7f-2369bb953021" d="M452.43,364.26c-7.5-5.36-18.22-8.58-32.15-8.58s-24.66,3.22-32.16,9.65c-6.43,6.43-10.72,15-10.72,26.8v6.43h31.09v-6.43a18.12,18.12,0,0,1,3.21-10.72,12.15,12.15,0,0,1,8.58-3.22c7.5,0,11.79,4.29,11.79,12.86a17.31,17.31,0,0,1-3.22,9.65c-2.14,3.22-5.36,6.43-10.72,9.65a29.16,29.16,0,0,0-9.64,12.86c-2.15,5.36-3.22,9.65-3.22,18.22H431a16.58,16.58,0,0,1,2.15-8.57c1.07-3.22,3.21-5.36,6.43-8.58l10.72-9.64a77.61,77.61,0,0,0,9.64-11.8A28.42,28.42,0,0,0,463.15,390C463.15,379.26,459.93,370.69,452.43,364.26Z" transform="translate(-88 -77)"/></svg>