<svg xmlns="http://www.w3.org/2000/svg" width="933.146" height="189.642" viewBox="0 0 933.146 189.642">
  <g id="Grupo_840" data-name="Grupo 840" transform="translate(-504.758 -441.49)">
    <g id="emblema" transform="translate(-6239.5 -6659.5)">
      <g id="SvgjsG1007">
        <g id="Grupo_839" data-name="Grupo 839">
          <g id="Grupo_830" data-name="Grupo 830">
            <path id="Caminho_339" data-name="Caminho 339" d="M6844.8,7211.339h-46.645l-12.5,46.64h46.654Z" fill="#7984ee"/>
          </g>
          <g id="Grupo_831" data-name="Grupo 831">
            <path id="Caminho_340" data-name="Caminho 340" d="M6785.653,7257.979h-32.645l-8.75,32.652h32.652Z" fill="#7984ee"/>
          </g>
          <g id="Grupo_832" data-name="Grupo 832">
            <path id="Caminho_341" data-name="Caminho 341" d="M6886.2,7178.692h-32.652l-8.745,32.647h32.647Z" fill="#7984ee"/>
          </g>
          <g id="Grupo_833" data-name="Grupo 833">
            <path id="Caminho_342" data-name="Caminho 342" d="M6859.669,7155.835h-22.854l-6.121,22.857h22.852Z" fill="#7984ee"/>
          </g>
          <g id="Grupo_834" data-name="Grupo 834">
            <path id="Caminho_343" data-name="Caminho 343" d="M6902.733,7116.989h-22.855l-6.125,22.857h22.86Z" fill="#7984ee"/>
          </g>
          <g id="Grupo_835" data-name="Grupo 835">
            <path id="Caminho_344" data-name="Caminho 344" d="M6804.279,7188.489h-22.853l-6.127,22.85h22.857Z" fill="#7984ee"/>
          </g>
          <g id="Grupo_836" data-name="Grupo 836">
            <path id="Caminho_345" data-name="Caminho 345" d="M6923.015,7100.99h-15.994l-4.288,16h16Z" fill="#7984ee"/>
          </g>
          <g id="Grupo_837" data-name="Grupo 837">
            <path id="Caminho_346" data-name="Caminho 346" d="M6906.479,7162.7h-15.992l-4.288,16h16Z" fill="#7984ee"/>
          </g>
          <g id="Grupo_838" data-name="Grupo 838">
            <path id="Caminho_347" data-name="Caminho 347" d="M6841.1,7139.836h-15.989l-4.3,16h16Z" fill="#7984ee"/>
          </g>
        </g>
      </g>
    </g>
    <g id="zapbrand" transform="translate(-6239.5 -6659.5)">
      <g id="SvgjsG1008">
        <path id="Caminho_348" data-name="Caminho 348" d="M7036.449,7232.192H6974.26v-18.038l36.764-42.6h-36.936v-18.038h62.189v18.038l-35.9,42.089h36.076Zm51.022,1.546a40.937,40.937,0,0,1-29.033-69.919,40.643,40.643,0,0,1,29.033-11.853,28.147,28.147,0,0,1,19.412,7.73l.859.687v-6.871h20.787v78.68h-20.787v-6.184l-.859.859C7100.7,7232.879,7093.656,7233.738,7087.471,7233.738Zm0-61.673c-11,0-20.271,9.62-20.271,20.787,0,11.338,9.276,20.787,20.271,20.787s20.271-9.449,20.271-20.787C7107.742,7181.685,7098.466,7172.065,7087.471,7172.065Zm103.419-20.1a40.936,40.936,0,0,1,29.032,69.919,40.638,40.638,0,0,1-29.032,11.853,28.146,28.146,0,0,1-19.413-7.73l-.859-.687v52.568h-20.787V7153.512h20.787v6.184l.859-.859C7177.662,7152.824,7184.705,7151.966,7190.89,7151.966Zm0,61.673c10.994,0,20.271-9.621,20.271-20.787,0-11.338-9.277-20.787-20.271-20.787s-20.272,9.449-20.272,20.787C7170.618,7204.018,7179.9,7213.639,7190.89,7213.639Zm98.952,20.1c-6.185,0-13.228-.859-19.413-6.871l-.859-.859v6.184h-20.787V7106.1h20.787v54.286l.859-.687a28.148,28.148,0,0,1,19.413-7.73,40.64,40.64,0,0,1,29.032,11.853,40.887,40.887,0,0,1-29.032,69.919Zm-20.272-40.886c0,11.338,9.277,20.787,20.272,20.787s20.271-9.449,20.271-20.787c0-11.167-9.277-20.787-20.271-20.787S7269.57,7181.685,7269.57,7192.852Zm99.468,39.34h-21.646v-78.68h21.646v6.356c6.184-6.185,15.461-8.246,21.645-8.246h5.154l-5.154,21.474h-3.264c-10.135,0-18.381,7.9-18.381,17.351Zm73.355,1.546a40.937,40.937,0,0,1-29.033-69.919,40.643,40.643,0,0,1,29.033-11.853,28.148,28.148,0,0,1,19.412,7.73l.859.687v-6.871h20.787v78.68h-20.787v-6.184l-.859.859C7455.621,7232.879,7448.577,7233.738,7442.393,7233.738Zm0-61.673c-11,0-20.272,9.62-20.272,20.787,0,11.338,9.277,20.787,20.272,20.787s20.271-9.449,20.271-20.787C7462.664,7181.685,7453.387,7172.065,7442.393,7172.065Zm138.807,60.127h-21.645V7190.1a16.427,16.427,0,0,0-16.664-16.492,16.756,16.756,0,0,0-16.664,16.492v42.089h-21.474v-78.68h21.474v5.669c5.326-5.326,11-7.215,16.664-7.215a37.838,37.838,0,0,1,38.31,38.137v42.089Zm55.146,1.546a40.937,40.937,0,0,1-29.033-69.919,40.641,40.641,0,0,1,29.033-11.853,28.147,28.147,0,0,1,19.412,7.73l.859.687V7106.1H7677.4v126.095h-20.787v-6.184l-.859.859C7649.574,7232.879,7642.53,7233.738,7636.346,7233.738Zm0-61.673c-11,0-20.272,9.62-20.272,20.787,0,11.338,9.277,20.787,20.272,20.787s20.271-9.449,20.271-20.787C7656.617,7181.685,7647.34,7172.065,7636.346,7172.065Z" fill="#fff"/>
      </g>
    </g>
  </g>
</svg>
