<svg width="53" height="66" viewBox="0 0 53 66" fill="none" xmlns="http://www.w3.org/2000/svg">
<path d="M51.8925 66C52.5254 66 53 65.4794 53 64.8786V14.9381C53 14.6177 52.8813 14.3374 52.644 14.1371L38.5239 0.320388C38.4843 0.28034 38.4052 0.240291 38.3657 0.200243C38.2866 0.160194 38.247 0.120146 38.1679 0.0800971C38.0493 0.0400485 37.891 0 37.7328 0H1.10746C0.514179 0 0 0.520631 0 1.12136V64.8786C0 65.5194 0.514179 66 1.10746 66H51.8925ZM38.8403 3.80461L49.0843 13.8167H38.8403V3.80461ZM2.25448 2.28277H36.6254V14.9782C36.6254 15.6189 37.1396 16.0995 37.7328 16.0995H50.7455V63.7573H2.25448V2.28277Z" fill="#B6B6B6"/>
<path d="M36.1008 28.3785L22.4422 42.972L20.0411 39.229C19.6868 38.6822 19.0177 38.514 18.506 38.8925C17.9942 39.271 17.8368 40.028 18.1911 40.5748L21.34 45.4953C21.5368 45.7897 21.8124 45.9579 22.1666 46C22.206 46 22.2453 46 22.2847 46C22.5602 46 22.8751 45.8738 23.0719 45.6636L37.6753 30.0607C38.1082 29.5981 38.1082 28.8411 37.6753 28.3785C37.2423 27.8738 36.5338 27.8738 36.1008 28.3785Z" fill="#B6B6B6"/>
</svg>
