<svg width="50" height="46" viewBox="0 0 50 46" fill="none" xmlns="http://www.w3.org/2000/svg">
<path d="M49.7946 32.0595C49.5206 31.7847 49.0724 31.7847 48.7984 32.0595L36.8202 44.3012L11.7183 19.8178L30.6444 1.20543C30.9183 0.930618 30.9183 0.480923 30.6444 0.20611C30.3704 -0.0687033 29.9222 -0.0687033 29.6482 0.20611L10.2241 19.3181C10.1743 19.3681 10.1743 19.4181 10.1494 19.443C10.1245 19.493 10.0747 19.518 10.0747 19.568C10.0498 19.6179 10.0498 19.6929 10.0249 19.7428C10.0249 19.7678 10 19.7928 10 19.8178V45.3005C10 45.7002 10.3237 46 10.6973 46H36.8202C36.9198 46 36.9946 45.975 37.0942 45.95C37.1689 45.925 37.2685 45.8501 37.3183 45.8001L49.7946 33.0588C50.0685 32.784 50.0685 32.3343 49.7946 32.0595ZM17.4957 44.601L11.4444 38.4052V21.5166L35.1019 44.6259H17.4957V44.601ZM11.4195 40.4538L15.5035 44.6259H11.4195V40.4538Z" fill="#B6B6B6"/>
<path d="M23.2261 26.803C23.3746 26.9507 23.548 27 23.7213 27C23.8946 27 24.0927 26.9261 24.2165 26.803L49.7957 1.18837C50.0681 0.917446 50.0681 0.474116 49.7957 0.203193C49.5233 -0.0677309 49.0776 -0.0677309 48.8052 0.203193L23.2013 25.7932C22.9289 26.0887 22.9289 26.532 23.2261 26.803Z" fill="#B6B6B6"/>
<path d="M48.738 13.2004L35.2158 25.8338C34.9281 26.1011 34.9281 26.5384 35.2158 26.8056C35.3727 26.9514 35.5558 27 35.7389 27C35.922 27 36.1312 26.9271 36.262 26.8056L49.7842 14.1722C50.0719 13.905 50.0719 13.4677 49.7842 13.2004C49.4965 12.9332 49.0257 12.9332 48.738 13.2004Z" fill="#B6B6B6"/>
<path d="M14.2857 8.45217C14.6939 8.45217 15 8.11304 15 7.72174C15 7.30435 14.6684 6.9913 14.2857 6.9913H8.21429V0.730435C8.21429 0.33913 7.90816 0 7.5 0C7.09184 0 6.78571 0.33913 6.78571 0.730435V6.96522H0.714286C0.331633 6.96522 0 7.30435 0 7.69565C0 8.11304 0.331633 8.42609 0.714286 8.42609H6.7602V14.2696C6.7602 14.687 7.09184 15 7.47449 15C7.88265 15 8.18878 14.6609 8.18878 14.2696V8.45217H14.2857Z" fill="#B6B6B6"/>
</svg>
