<svg width="61" height="61" viewBox="0 0 61 61" fill="none" xmlns="http://www.w3.org/2000/svg">
<path d="M28.485 28.3638C24.021 28.3638 20.395 24.7378 20.395 20.2738C20.395 15.826 24.021 12.2 28.485 12.2C32.949 12.2 36.5749 15.826 36.5749 20.2899C36.5749 24.7378 32.949 28.3638 28.485 28.3638ZM28.485 13.1186C24.5367 13.1186 21.3136 16.3417 21.3136 20.2899C21.3136 24.2382 24.5367 27.4613 28.485 27.4613C32.4333 27.4613 35.6564 24.2382 35.6564 20.2899C35.6564 16.3255 32.4333 13.1186 28.485 13.1186Z" stroke="#E5E5E5"/>
<path d="M32.6911 45.1399H18.7513C18.5095 45.1399 18.3 44.9465 18.3 44.6887V37.8396C18.3 32.1186 22.9574 27.4613 28.6784 27.4613C32.6267 27.4613 36.1721 29.653 37.9448 33.1661C38.0576 33.3918 37.9609 33.6657 37.7353 33.7785C37.5097 33.8913 37.2357 33.7946 37.1229 33.569C35.4952 30.3621 32.256 28.3637 28.6623 28.3637C23.4409 28.3637 19.2025 32.6021 19.2025 37.8235V44.2213H32.6911C32.949 44.2213 33.1424 44.4308 33.1424 44.6726C33.1585 44.9465 32.949 45.1399 32.6911 45.1399Z" stroke="#E5E5E5"/>
<path d="M42.6343 41.1273H34.5766C34.3188 41.1273 34.1254 40.9178 34.1254 40.6761C34.1254 40.4182 34.3349 40.2248 34.5766 40.2248H42.6343C42.8922 40.2248 43.0856 40.4343 43.0856 40.6761C43.0856 40.9178 42.8761 41.1273 42.6343 41.1273Z" stroke="#E5E5E5"/>
<path d="M38.6054 45.14C38.3476 45.14 38.1542 44.9305 38.1542 44.6888V36.631C38.1542 36.3732 38.3637 36.1798 38.6054 36.1798C38.8471 36.1798 39.0566 36.3893 39.0566 36.631V44.6888C39.0566 44.9466 38.8471 45.14 38.6054 45.14Z" stroke="#E5E5E5"/>
<circle cx="30.5" cy="30.5" r="29.5" stroke="#E5E5E5" stroke-width="2"/>
</svg>
