<svg width="222" height="222" viewBox="0 0 222 222" fill="none" xmlns="http://www.w3.org/2000/svg">
<circle cx="111" cy="111" r="111" fill="#C4C4C4"/>
<path d="M108.505 102.282C90.7519 102.282 76.3316 87.862 76.3316 70.1091C76.3316 52.4203 90.7519 38 108.505 38C126.258 38 140.678 52.4203 140.678 70.1732C140.678 87.862 126.258 102.282 108.505 102.282ZM108.505 41.6531C92.8028 41.6531 79.9848 54.4711 79.9848 70.1732C79.9848 85.8752 92.8028 98.6932 108.505 98.6932C124.207 98.6932 137.025 85.8752 137.025 70.1732C137.025 54.407 124.207 41.6531 108.505 41.6531Z" fill="white"/>
<path d="M125.232 169H69.7945C68.8332 169 68 168.231 68 167.205V139.967C68 117.215 86.522 98.693 109.274 98.693C124.976 98.693 139.076 107.409 146.126 121.381C146.574 122.278 146.19 123.368 145.293 123.816C144.395 124.265 143.306 123.88 142.857 122.983C136.384 110.229 123.502 102.282 109.21 102.282C88.4447 102.282 71.589 119.138 71.589 139.903V165.347H125.232C126.258 165.347 127.027 166.18 127.027 167.141C127.091 168.231 126.258 169 125.232 169Z" fill="white"/>
<path d="M164.776 153.042H132.731C131.706 153.042 130.936 152.209 130.936 151.247C130.936 150.222 131.77 149.453 132.731 149.453H164.776C165.801 149.453 166.57 150.286 166.57 151.247C166.57 152.209 165.737 153.042 164.776 153.042Z" fill="white"/>
<path d="M148.753 169C147.728 169 146.959 168.167 146.959 167.205V135.16C146.959 134.135 147.792 133.366 148.753 133.366C149.715 133.366 150.548 134.199 150.548 135.16V167.205C150.548 168.231 149.715 169 148.753 169Z" fill="white"/>
</svg>
