<svg width="46" height="80" viewBox="0 0 46 80" fill="none" xmlns="http://www.w3.org/2000/svg">
<rect x="7" y="1" width="34" height="47" rx="17" stroke="#D7D5D5" stroke-width="2"/>
<rect x="20" y="5" width="9" height="16" rx="4.5" fill="#D7D5D5"/>
<path fill-rule="evenodd" clip-rule="evenodd" d="M38.0046 50.6111C38.4451 50.2839 38.5369 49.6615 38.2096 49.221C37.8823 48.7805 37.2599 48.6887 36.8194 49.016L24.4197 58.2291L11.8738 49.2229C11.428 48.9028 10.8072 49.0048 10.4872 49.4506C10.1672 49.8964 10.2691 50.5172 10.7149 50.8372L23.7373 60.1856C23.9517 60.3395 24.2065 60.3957 24.4488 60.3632C24.6856 60.3862 24.9312 60.3248 25.1372 60.1718L38.0046 50.6111Z" fill="#D7D5D5"/>
<path d="M7.85156 76.3145C7.85156 75.735 7.61719 75.2695 7.14844 74.918C6.6862 74.5664 5.98633 74.293 5.04883 74.0977C4.11133 73.8958 3.38216 73.668 2.86133 73.4141C2.34701 73.1536 1.96289 72.8379 1.70898 72.4668C1.46159 72.0957 1.33789 71.6465 1.33789 71.1191C1.33789 70.2858 1.6862 69.599 2.38281 69.0586C3.07943 68.5117 3.97135 68.2383 5.05859 68.2383C6.23698 68.2383 7.18099 68.5312 7.89062 69.1172C8.60677 69.6966 8.96484 70.4551 8.96484 71.3926H7.79297C7.79297 70.7741 7.53255 70.2598 7.01172 69.8496C6.4974 69.4395 5.84635 69.2344 5.05859 69.2344C4.29036 69.2344 3.67188 69.4069 3.20312 69.752C2.74089 70.0905 2.50977 70.5332 2.50977 71.0801C2.50977 71.6074 2.70182 72.0176 3.08594 72.3105C3.47656 72.597 4.18294 72.8607 5.20508 73.1016C6.23372 73.3424 7.00195 73.5996 7.50977 73.873C8.02409 74.1465 8.40495 74.4753 8.65234 74.8594C8.89974 75.2435 9.02344 75.709 9.02344 76.2559C9.02344 77.1478 8.66211 77.8607 7.93945 78.3945C7.22331 78.9284 6.28581 79.1953 5.12695 79.1953C3.89648 79.1953 2.89714 78.8991 2.12891 78.3066C1.36719 77.7077 0.986328 76.9525 0.986328 76.041H2.1582C2.20378 76.7246 2.49023 77.2585 3.01758 77.6426C3.55143 78.0202 4.25456 78.209 5.12695 78.209C5.94076 78.209 6.59831 78.0299 7.09961 77.6719C7.60091 77.3138 7.85156 76.8613 7.85156 76.3145ZM15.5664 78.209C16.3802 78.209 17.0605 77.9811 17.6074 77.5254C18.1608 77.0632 18.4603 76.4674 18.5059 75.7383H19.6289C19.5964 76.3828 19.3945 76.972 19.0234 77.5059C18.6523 78.0332 18.1576 78.4466 17.5391 78.7461C16.9271 79.0456 16.2695 79.1953 15.5664 79.1953C14.1797 79.1953 13.0794 78.7135 12.2656 77.75C11.4583 76.7865 11.0547 75.4909 11.0547 73.8633V73.5117C11.0547 72.4701 11.237 71.5488 11.6016 70.748C11.9661 69.9473 12.487 69.3288 13.1641 68.8926C13.8477 68.4564 14.6452 68.2383 15.5566 68.2383C16.7155 68.2383 17.6693 68.5833 18.418 69.2734C19.1732 69.9635 19.5768 70.8717 19.6289 71.998H18.5059C18.4538 71.1712 18.1543 70.5039 17.6074 69.9961C17.0671 69.4883 16.3835 69.2344 15.5566 69.2344C14.502 69.2344 13.6816 69.6152 13.0957 70.377C12.5163 71.1387 12.2266 72.2064 12.2266 73.5801V73.9219C12.2266 75.2695 12.5163 76.321 13.0957 77.0762C13.6816 77.8314 14.5052 78.209 15.5664 78.209ZM26.8555 69.4297C26.6081 69.3841 26.3444 69.3613 26.0645 69.3613C25.3353 69.3613 24.7168 69.5664 24.209 69.9766C23.7077 70.3802 23.3496 70.9694 23.1348 71.7441V79H21.9727V68.4336H23.1152L23.1348 70.1133C23.7533 68.8633 24.7461 68.2383 26.1133 68.2383C26.4388 68.2383 26.696 68.2806 26.8848 68.3652L26.8555 69.4297ZM27.8711 73.5605C27.8711 72.5449 28.0664 71.6302 28.457 70.8164C28.8542 70.0026 29.4108 69.3711 30.127 68.9219C30.8496 68.4661 31.6667 68.2383 32.5781 68.2383C33.9844 68.2383 35.1237 68.7331 35.9961 69.7227C36.8685 70.7057 37.3047 72.0111 37.3047 73.6387V73.8828C37.3047 74.9049 37.1061 75.8262 36.709 76.6465C36.3184 77.4603 35.765 78.0885 35.0488 78.5312C34.3327 78.974 33.5156 79.1953 32.5977 79.1953C31.1979 79.1953 30.0586 78.7038 29.1797 77.7207C28.3073 76.7311 27.8711 75.4225 27.8711 73.7949V73.5605ZM29.043 73.8828C29.043 75.1458 29.3685 76.1842 30.0195 76.998C30.6771 77.8053 31.5365 78.209 32.5977 78.209C33.6523 78.209 34.5052 77.8053 35.1562 76.998C35.8138 76.1842 36.1426 75.1133 36.1426 73.7852V73.5605C36.1426 72.7533 35.9928 72.0143 35.6934 71.3438C35.3939 70.6732 34.974 70.1556 34.4336 69.791C33.8932 69.4199 33.2747 69.2344 32.5781 69.2344C31.5365 69.2344 30.6868 69.6445 30.0293 70.4648C29.3717 71.2786 29.043 72.3464 29.043 73.668V73.8828ZM41.0352 79H39.8633V64H41.0352V79ZM45.5273 79H44.3555V64H45.5273V79Z" fill="#D7D5D5"/>
</svg>
