<svg width="36" height="33" viewBox="0 0 36 33" fill="none" xmlns="http://www.w3.org/2000/svg">
<path d="M34.5162 32.4184H1.48556C1.2299 32.4184 1.00834 32.2104 1.00834 31.9704V19.5567C1.00834 19.3007 1.2299 19.1087 1.48556 19.1087H13.8252C14.0979 19.1087 14.3024 19.3167 14.3024 19.5567V24.7077H21.8357V19.5567C21.8357 19.3007 22.0573 19.1087 22.3129 19.1087H34.4821C34.7548 19.1087 34.9593 19.3167 34.9593 19.5567V31.9704C34.9934 32.2104 34.7718 32.4184 34.5162 32.4184ZM1.97983 31.5065H34.0389V19.9886H22.8242V25.1397C22.8242 25.3956 22.6027 25.5876 22.347 25.5876H13.8252C13.5525 25.5876 13.3479 25.3796 13.3479 25.1397V19.9886H1.97983V31.5065Z" fill="white" stroke="white"/>
<path d="M1.48554 20.0046C1.43441 20.0046 1.38328 20.0046 1.33215 19.9886C1.07649 19.9086 0.940144 19.6526 1.02536 19.4127L7.3656 1.30395C7.43378 1.12798 7.62126 1 7.82578 1H28.585C28.7895 1 28.977 1.12798 29.0451 1.31994L34.9763 19.4127C35.0616 19.6526 34.9082 19.9086 34.6525 19.9726C34.3968 20.0526 34.1241 19.9086 34.056 19.6686L28.227 1.91184H8.16666L1.94572 19.6846C1.87755 19.8766 1.69007 20.0046 1.48554 20.0046Z" fill="white" stroke="white"/>
</svg>
