<svg width="36" height="35" viewBox="0 0 36 35" fill="none" xmlns="http://www.w3.org/2000/svg">
<path d="M34.5162 34.4737H1.48558C1.22993 34.4737 1.00836 34.2522 1.00836 33.9965V20.7707C1.00836 20.498 1.22993 20.2934 1.48558 20.2934H13.8252C14.0979 20.2934 14.3024 20.515 14.3024 20.7707V26.2587H21.8357V20.7707C21.8357 20.498 22.0573 20.2934 22.3129 20.2934H34.4821C34.7548 20.2934 34.9593 20.515 34.9593 20.7707V33.9965C34.9934 34.2522 34.7718 34.4737 34.5162 34.4737ZM1.97985 33.5023H34.039V21.2308H22.8242V26.7189C22.8242 26.9916 22.6027 27.1961 22.347 27.1961H13.8252C13.5525 27.1961 13.348 26.9745 13.348 26.7189V21.2308H1.97985V33.5023Z" fill="#FAFF00" stroke="#FFE600"/>
<path d="M1.48554 21.2479C1.43441 21.2479 1.38328 21.2479 1.33215 21.2308C1.07649 21.1456 0.940144 20.8729 1.02536 20.6173L7.3656 1.32383C7.43378 1.13635 7.62126 1 7.82578 1H28.585C28.7895 1 28.977 1.13635 29.0451 1.34087L34.9763 20.6173C35.0616 20.8729 34.9082 21.1456 34.6525 21.2138C34.3968 21.299 34.1241 21.1456 34.056 20.89L28.227 1.97149H8.16666L1.94572 20.907C1.87755 21.1115 1.69007 21.2479 1.48554 21.2479Z" fill="#FAFF00" stroke="#FFE600"/>
</svg>
